<svg width="30" height="28" viewBox="0 0 30 28" version="1.1" xmlns="http://www.w3.org/2000/svg" xmlns:xlink="http://www.w3.org/1999/xlink">
<title>Group 2</title>
<desc>Created using Figma</desc>
<g id="Canvas" transform="translate(122 223)">
<g id="Group 2">
<g id="Rectangle 2">
<use xlink:href="#path0_stroke" transform="translate(-121 -216.179)" fill="#EB3B3B"/>
</g>
<g id="Vector">
<use xlink:href="#path1_stroke" transform="translate(-121 -210.746)" fill="#EB3B3B"/>
</g>
<g id="Rectangle 3">
<use xlink:href="#path2_stroke" transform="translate(-109.756 -210.746)" fill="#EB3B3B"/>
</g>
<g id="Vector 2">
<use xlink:href="#path3_stroke" transform="translate(-112.47 -222)" fill="#EB3B3B"/>
</g>
</g>
</g>
<defs>
<path id="path0_stroke" d="M 4 1L 23.5294 1L 23.5294 -1L 4 -1L 4 1ZM 26.5294 4L 26.5294 16.1791L 28.5294 16.1791L 28.5294 4L 26.5294 4ZM 23.5294 19.1791L 4 19.1791L 4 21.1791L 23.5294 21.1791L 23.5294 19.1791ZM 1 16.1791L 1 4L -1 4L -1 16.1791L 1 16.1791ZM 4 19.1791C 2.34315 19.1791 1 17.836 1 16.1791L -1 16.1791C -1 18.9405 1.23858 21.1791 4 21.1791L 4 19.1791ZM 26.5294 16.1791C 26.5294 17.836 25.1863 19.1791 23.5294 19.1791L 23.5294 21.1791C 26.2908 21.1791 28.5294 18.9405 28.5294 16.1791L 26.5294 16.1791ZM 23.5294 1C 25.1863 1 26.5294 2.34315 26.5294 4L 28.5294 4C 28.5294 1.23858 26.2908 -1 23.5294 -1L 23.5294 1ZM 4 -1C 1.23858 -1 -1 1.23858 -1 4L 1 4C 1 2.34315 2.34315 1 4 1L 4 -1Z"/>
<path id="path1_stroke" d="M -0.193612 0.981078L 11.2447 3.23838L 11.6319 1.27623L 0.193612 -0.981078L -0.193612 0.981078ZM 16.4786 3.20012L 27.723 0.981078L 27.3358 -0.981078L 16.0914 1.23797L 16.4786 3.20012Z"/>
<path id="path2_stroke" d="M 2 1L 3.0406 1L 3.0406 -1L 2 -1L 2 1ZM 4.0406 2L 4.0406 3.04478L 6.0406 3.04478L 6.0406 2L 4.0406 2ZM 3.0406 4.04478L 2 4.04478L 2 6.04478L 3.0406 6.04478L 3.0406 4.04478ZM 1 3.04478L 1 2L -1 2L -1 3.04478L 1 3.04478ZM 2 4.04478C 1.44772 4.04478 1 3.59706 1 3.04478L -1 3.04478C -1 4.70163 0.343146 6.04478 2 6.04478L 2 4.04478ZM 4.0406 3.04478C 4.0406 3.59706 3.59288 4.04478 3.0406 4.04478L 3.0406 6.04478C 4.69745 6.04478 6.0406 4.70163 6.0406 3.04478L 4.0406 3.04478ZM 3.0406 1C 3.59288 1 4.0406 1.44772 4.0406 2L 6.0406 2C 6.0406 0.343146 4.69745 -1 3.0406 -1L 3.0406 1ZM 2 -1C 0.343146 -1 -1 0.343146 -1 2L 1 2C 1 1.44772 1.44772 1 2 1L 2 -1Z"/>
<path id="path3_stroke" d="M -1 3.05882C -1 3.61111 -0.552285 4.05882 0 4.05882C 0.552285 4.05882 1 3.61111 1 3.05882L -1 3.05882ZM 9.46893 3.05882C 9.46893 3.61111 9.91665 4.05882 10.4689 4.05882C 11.0212 4.05882 11.4689 3.61111 11.4689 3.05882L 9.46893 3.05882ZM 1 3.05882L 1 3L -1 3L -1 3.05882L 1 3.05882ZM 3 1L 7.46893 1L 7.46893 -1L 3 -1L 3 1ZM 9.46893 3L 9.46893 3.05882L 11.4689 3.05882L 11.4689 3L 9.46893 3ZM 7.46893 1C 8.5735 1 9.46893 1.89543 9.46893 3L 11.4689 3C 11.4689 0.790861 9.67807 -1 7.46893 -1L 7.46893 1ZM 1 3C 1 1.89543 1.89543 1 3 1L 3 -1C 0.790861 -1 -1 0.790861 -1 3L 1 3Z"/>
</defs>
</svg>
